/* XPM */
static char *_fef4c7444e344dac8662558278d95a7[] = {
/* columns rows colors chars-per-pixel */
"32 32 111 2 ",
"   c #1C2857",
".  c #25305E",
"X  c #2A3561",
"o  c #2E3964",
"O  c #323C67",
"+  c #353F69",
"@  c #36406A",
"#  c #3C456D",
"$  c #3F4971",
"%  c #484D6F",
"&  c #434C74",
"*  c #494E70",
"=  c #4F577C",
"-  c #535A7B",
";  c #3B6FB8",
":  c #3B70B9",
">  c #545D81",
",  c #44579F",
"<  c #44589F",
"1  c #5C6385",
"2  c #606786",
"3  c #606887",
"4  c #626A8B",
"5  c #6B7392",
"6  c #707795",
"7  c #737A96",
"8  c #757C99",
"9  c #787E99",
"0  c #455CA3",
"q  c #4565AB",
"w  c #476AAF",
"e  c #4772B6",
"r  c #4476BB",
"t  c #4679BD",
"y  c #497CBF",
"u  c #657BB6",
"i  c #467BC0",
"p  c #487EC1",
"a  c #76819F",
"s  c #7D839D",
"d  c #7783A1",
"f  c #7A85A2",
"g  c #7887A8",
"h  c #7A8BAC",
"j  c #5486C5",
"k  c #5888C5",
"l  c #6A94C9",
"z  c #7796C0",
"x  c #7997C1",
"c  c #769CCC",
"v  c #6294D1",
"b  c #7DA6D9",
"n  c #80869F",
"m  c #8187A1",
"M  c #8389A1",
"N  c #898EA5",
"B  c #8C91A8",
"V  c #9195AA",
"C  c #869CBF",
"Z  c #979CB1",
"A  c #9A9EB2",
"S  c #9DA2B6",
"D  c #A1A5B8",
"F  c #A6AABC",
"G  c #AAAEBF",
"H  c #8794C2",
"J  c #8896C4",
"K  c #859DC0",
"L  c #8999C6",
"P  c #899DC9",
"I  c #82A2CC",
"U  c #8AA3CF",
"Y  c #85A5D3",
"T  c #8AA5D0",
"R  c #87A8D6",
"E  c #8BAAD6",
"W  c #80A8D9",
"Q  c #90ADD6",
"!  c #94B2DA",
"~  c #A9AFC1",
"^  c #ABB1C3",
"/  c #AAB4C9",
"(  c #B1B5C5",
")  c #B6B9C7",
"_  c #B6BAC8",
"`  c #BABECC",
"'  c #A7BAD6",
"]  c #A8BBD6",
"[  c #A1BADC",
"{  c #A8BFDE",
"}  c #B2BFD5",
"|  c #9CBAE1",
" . c #BFC2CE",
".. c #ACC1DE",
"X. c #B2C0D6",
"o. c #B0C3DD",
"O. c #C2C5D2",
"+. c #C7CAD6",
"@. c #CBCDD7",
"#. c #CBCED9",
"$. c #CED0DA",
"%. c #D2D4DD",
"&. c #D7D9E0",
"*. c #D9DBE2",
"=. c #E2E3E9",
"-. c #E7E9ED",
";. c #EAEBEF",
":. c #EDEEF2",
">. c #F1F1F4",
",. c gray100",
"<. c None",
/* pixels */
"<.<.<.<.<.<.<.<.<.<.<.<.<.<.<.<.<.<.<.<.<.<.<.<.<.<.<.<.<.<.<.<.",
"<.<.<.<.<.<.<.<.<.<.<.<.<.<.<.H H <.<.<.<.<.<.<.<.<.<.<.<.<.<.<.",
"<.<.<.<.<.<.<.<.H <.<.<.<.<.<.P P <.<.<.<.<.<.H <.<.<.<.<.<.<.<.",
"<.<.<.<.<.<.<.<.J H <.<.<.<.H E T H <.<.<.<.H J <.<.<.<.<.<.<.<.",
"<.<.<.<.<.<.<.<.J T P H <.H P E E U H <.H L T J <.<.<.<.<.<.<.<.",
"<.<.<.<.<.<.<.<.J E E T J J E E E R J J T Q E J <.<.<.<.<.<.<.<.",
"<.<.<.<.<.<.<.<.J E E E E Y [ ! ! [ Y E E E E H <.<.<.<.<.<.<.<.",
"<.<.<.<.<.<.<.<.L E R E } { G / / ~ { } E R E J <.<.<.<.<.<.<.<.",
"<.<.0 0 0 0 q 0 u Q ] o.Z V n n s M V A o.] T L J J J J H H <.<.",
"<.<.<.0 e t t t t W ( M M 9 s s s s 8 M N ^ | E E E E Y H <.<.<.",
"<.<.<.<.q p i t x 8 6 s s s s s s s m s 9 V G ] R E Q L <.<.<.<.",
"<.<.<.<., e p p I * . 1 M n s s n n s s s 8 N o.E E U H <.<.<.<.",
"<.<.<.<.<.0 p C 1 o o O - 9 s 9 8 7 s 9 s s s A } E J <.<.<.<.<.",
"<.<.<.<.0 0 : c - 8 3 X & F N S ` ) N F M N S V { Y J H <.<.<.<.",
"<.<.<.0 w r l a # ;.$.  A ,.6 $.&.G V :.9 B ;.M ~ [ R P H <.<.<.",
"<.0 q t p t j h # @.%.= ( =.= _ &.Z N >.$.%.-.s / ! E E E P H <.",
"<.0 q t p t k g # O.F _ S +.> ^ *._ B :.(  .-.n / ! E E T P H <.",
"<.<.<.0 w r l d & #.5 ,.5 #.> ` s # V :.9 B -.M ^ [ R P H <.<.<.",
"<.<.<.<.< 0 : c - 4 $ 7 # 5 $ 4 > X 3 ~ n N S V ..Y J H <.<.<.<.",
"<.<.<.<.<.0 p x 3 + O . O X O X O @ o = n s s A X.E J <.<.<.<.<.",
"<.<.<.<., e y j I * X # @ @ @ @ @ + + O 1 s N o.E Q U H <.<.<.<.",
"<.<.<.<.q j y : z f = X @ @ @ + + + @ + . 7 ( ] R E E P <.<.<.<.",
"<.<.<.0 t t t t t v f % # X + @ + O X $ * a b Q E T E T H <.<.<.",
"<.<.0 0 0 0 0 0 0 t z I 3 - # @ + & - 3 c x t u J J J J J H <.<.",
"<.<.<.<.<.<.<.<.0 y i i K c f h h f c K i t t 0 <.<.<.<.<.<.<.<.",
"<.<.<.<.<.<.<.<.0 t p p i : l j j l : p p p t 0 <.<.<.<.<.<.<.<.",
"<.<.<.<.<.<.<.<.0 t p e 0 0 r t t r 0 0 e p t 0 <.<.<.<.<.<.<.<.",
"<.<.<.<.<.<.<.<.0 e q < <., w p p w , <., q e 0 <.<.<.<.<.<.<.<.",
"<.<.<.<.<.<.<.<.0 0 <.<.<.<.0 t r 0 <.<.<.<.0 0 <.<.<.<.<.<.<.<.",
"<.<.<.<.<.<.<.<.0 <.<.<.<.<.<.q q <.<.<.<.<.<.0 <.<.<.<.<.<.<.<.",
"<.<.<.<.<.<.<.<.<.<.<.<.<.<.<.0 0 <.<.<.<.<.<.<.<.<.<.<.<.<.<.<.",
"<.<.<.<.<.<.<.<.<.<.<.<.<.<.<.<.<.<.<.<.<.<.<.<.<.<.<.<.<.<.<.<."
};
