/* XPM */
static char *_303f373a3094893ed417320cf5dea2b[] = {
/* columns rows colors chars-per-pixel */
"16 16 120 2 ",
"   c #28325F",
".  c #2B3562",
"X  c #2F3A65",
"o  c #343A62",
"O  c #333D67",
"+  c #333D68",
"@  c #343E69",
"#  c #3E456B",
"$  c #434D74",
"%  c #475077",
"&  c #495278",
"*  c #4D5579",
"=  c #4E5679",
"-  c #595E7E",
";  c #3F59A3",
":  c #3F5AA4",
">  c #585F80",
",  c #5C6180",
"<  c #616989",
"1  c #636988",
"2  c #6E7593",
"3  c #777D99",
"4  c #777E9A",
"5  c #787F9A",
"6  c #455BA2",
"7  c #455CA2",
"8  c #405AA4",
"9  c #4666AB",
"0  c #4667AB",
"q  c #4667AC",
"w  c #4269AF",
"e  c #4369AF",
"r  c #466AAF",
"t  c #476AAF",
"y  c #466BAF",
"u  c #5676A7",
"i  c #5F76A0",
"p  c #5D7CAC",
"a  c #4269B0",
"s  c #436AB0",
"d  c #476BB0",
"f  c #456CB1",
"g  c #456DB1",
"h  c #4578BD",
"j  c #4578BE",
"k  c #547EBD",
"l  c #657DA5",
"z  c #687EA6",
"x  c #487AC0",
"c  c #487BC0",
"v  c #7F839B",
"b  c #7A819C",
"n  c #7C829C",
"m  c #5E84BA",
"M  c #6C82A9",
"N  c #6686B4",
"B  c #6086BC",
"V  c #6187BD",
"C  c #4D85C7",
"Z  c #4E85C7",
"A  c #4F86C8",
"S  c #7394C8",
"D  c #7596C9",
"F  c #81859D",
"G  c #83879F",
"H  c #84889F",
"J  c #8288A1",
"K  c #8B90A7",
"L  c #8C91A7",
"P  c #8D92A8",
"I  c #9095AC",
"U  c #9197AE",
"Y  c #9398AD",
"T  c #9398AE",
"R  c #9599AE",
"E  c #969BAF",
"W  c #969BB1",
"Q  c #9D9FB1",
"!  c #A1A6B9",
"~  c #A6ABBD",
"^  c #8795C3",
"/  c #8494C4",
"(  c #8895C3",
")  c #899CC9",
"_  c #899DC9",
"`  c #899FCB",
"'  c #8A9FCB",
"]  c #889ECC",
"[  c #889FCC",
"{  c #899FCC",
"}  c #8A9FCC",
"|  c #89A0CD",
" . c #89A1CD",
".. c #9FACC5",
"X. c #96A9C9",
"o. c #9EB1CE",
"O. c #8AA8D5",
"+. c #8AA9D5",
"@. c #8CAAD6",
"#. c #93ACD5",
"$. c #8FB0DB",
"%. c #8FB1DB",
"&. c #99B0D3",
"*. c #9AB0D3",
"=. c #9BB1D4",
"-. c #9BB2D4",
";. c #90B1DB",
":. c #A1AEC7",
">. c #ADB1C2",
",. c #AFB3C3",
"<. c #A5B2C9",
"1. c #A7B3CA",
"2. c #B4B6C3",
"3. c #B4B6C4",
"4. c #B4B8C7",
"5. c #BBBFCD",
"6. c #BEC1CE",
"7. c #C3C6D2",
"8. c #C4C7D2",
"9. c None",
/* pixels */
"9.9.9.9.9.9.9.9.9.9.9.9.9.9.9.9.",
"9.9.9.9.^ 9.9.` ` 9.9.( 9.9.9.9.",
"9.9.9.9.` | / +.O./ | ` 9.9.9.9.",
"9.9.9.9.{ %.=.o.o.=.%.` 9.9.9.9.",
"9.7 d a D 1.L G H L :.#.{ { ( 9.",
"9.9.f A i - b 5 5 3 n :.%.| 9.9.",
"9.9.8 m 1 @ 2 Y Y K n E *./ 9.9.",
"9.q c u Q W ~ >.7.4.7.2.X.@.` 9.",
"9.t h p G 5.! U I ,.6.2.X.@.) 9.",
"9.9.8 V - $ % & O 1 J Y *./ 9.9.",
"9.9.f C l o . X O   , 1.%.| 9.9.",
"9.6 d a k M = # # = l S ` ` ^ 9.",
"9.9.9.9.a C V N N V C w 9.9.9.9.",
"9.9.9.9.t f ; h h ; f t 9.9.9.9.",
"9.9.9.9.7 9.9.9 9 9.9.6 9.9.9.9.",
"9.9.9.9.9.9.9.9.9.9.9.9.9.9.9.9."
};
