/* XPM */
static char *e204aeb026a5400bf9ef1595860dccfa[] = {
/* columns rows colors chars-per-pixel */
"64 64 159 2 ",
"   c #1A2555",
".  c #1C2857",
"X  c #1E2958",
"o  c #232E5C",
"O  c #25305D",
"+  c #28335F",
"@  c #2A3561",
"#  c #2E3965",
"$  c #323C66",
"%  c #353F69",
"&  c #3A4167",
"*  c #37416A",
"=  c #3B446C",
"-  c #3E4870",
";  c #40476C",
":  c #42496F",
">  c #444C72",
",  c #4A5275",
"<  c #4F577C",
"1  c #525A7D",
"2  c #316BB7",
"3  c #336CB8",
"4  c #3D75BC",
"5  c #565E81",
"6  c #43569E",
"7  c #44589F",
"8  c #5A6183",
"9  c #616989",
"0  c #696E8B",
"q  c #6E7593",
"w  c #727792",
"e  c #727995",
"r  c #797E97",
"t  c #767D99",
"y  c #787F9A",
"u  c #455BA2",
"i  c #4561A7",
"p  c #4565AA",
"a  c #4669AE",
"s  c #466DB1",
"d  c #4671B6",
"f  c #4476BB",
"g  c #467ABE",
"h  c #487CBE",
"j  c #6576B1",
"k  c #6678B2",
"l  c #677FB8",
"z  c #467CC0",
"x  c #487EC0",
"c  c #7D839D",
"v  c #7F86A0",
"b  c #6781BA",
"n  c #4F82C2",
"m  c #5285C5",
"M  c #5788C6",
"N  c #5B8AC6",
"B  c #5A8BC8",
"V  c #628EC6",
"C  c #608EC9",
"Z  c #6691C7",
"A  c #6290CA",
"S  c #6B95CB",
"D  c #749BCD",
"F  c #7C9ECB",
"G  c #7EA1D1",
"H  c #808094",
"J  c #81869E",
"K  c #83889F",
"L  c #8C8C9D",
"P  c #8187A0",
"I  c #848AA2",
"U  c #898DA4",
"Y  c #8D91A6",
"T  c #8E93AA",
"R  c #9392A1",
"E  c #9196AC",
"W  c #9499AE",
"Q  c #9D9BA9",
"!  c #979CB0",
"~  c #989DB2",
"^  c #9DA2B4",
"/  c #A2A5B6",
"(  c #A5A8B7",
")  c #A1A5B8",
"_  c #A4A9BB",
"`  c #AAADBC",
"'  c #B2B2BD",
"]  c #8794C2",
"[  c #8895C3",
"{  c #8999C6",
"}  c #899DCA",
"|  c #83A3CC",
" . c #8AA2CE",
".. c #9DAEC7",
"X. c #9BAFCA",
"o. c #9FB0C9",
"O. c #85A6D4",
"+. c #8AA6D2",
"@. c #85A8D5",
"#. c #8BAAD5",
"$. c #8CADD8",
"%. c #90AED6",
"&. c #90AFD8",
"*. c #8FB1DA",
"=. c #95B1D4",
"-. c #9BB4D4",
";. c #95B3DB",
":. c #9CB6DB",
">. c #9FB8DB",
",. c #A1AFC6",
"<. c #ABAFC0",
"1. c #ADB2C1",
"2. c #A5B4CC",
"3. c #A9B6CB",
"4. c #B3B5C1",
"5. c #B2B9C7",
"6. c #BBBBC4",
"7. c #B6BAC8",
"8. c #BABECB",
"9. c #A4B7D0",
"0. c #AFBDD2",
"q. c #A2BBDD",
"w. c #A8BEDD",
"e. c #A6BFE0",
"r. c #C0BFC7",
"t. c #BEC1CE",
"y. c #AEC2DE",
"u. c #B5C0D2",
"i. c #B2C4DF",
"p. c #BECBDC",
"a. c #B2C7E3",
"s. c #B5C9E3",
"d. c #BACCE3",
"f. c #C2C4CE",
"g. c #C3C7D2",
"h. c #C6C9D3",
"j. c #CACCD4",
"k. c #C3CDDC",
"l. c #CACED9",
"z. c #C7D0DF",
"x. c #CED1DB",
"c. c #D2D4DD",
"v. c #C0CFE3",
"b. c #C6D0E1",
"n. c #CCD4E1",
"m. c #CEDBEB",
"M. c #D5D7E0",
"N. c #D6D8E0",
"B. c #D9DBE2",
"V. c #D3DDEA",
"C. c #D8DEE8",
"Z. c #DFE0E7",
"A. c #DAE0E9",
"S. c #E3E4EA",
"D. c #E9EAEE",
"F. c #F3F3F6",
"G. c #F7F7F8",
"H. c #FDFEFE",
"J. c None",
/* pixels */
"J.J.J.J.J.J.J.J.J.J.J.J.J.J.J.J.J.J.J.J.J.J.J.J.J.J.J.J.J.J.J.J.J.J.J.J.J.J.J.J.J.J.J.J.J.J.J.J.J.J.J.J.J.J.J.J.J.J.J.J.J.J.J.J.",
"J.J.J.J.J.J.J.J.J.J.J.J.J.J.J.J.J.J.J.J.J.J.J.J.J.J.J.J.J.J.J.[ [ J.J.J.J.J.J.J.J.J.J.J.J.J.J.J.J.J.J.J.J.J.J.J.J.J.J.J.J.J.J.J.",
"J.J.J.J.J.J.J.J.J.J.J.J.J.J.J.J.J.J.J.J.J.J.J.J.J.J.J.J.J.J.[ [ [ J.J.J.J.J.J.J.J.J.J.J.J.J.J.J.J.J.J.J.J.J.J.J.J.J.J.J.J.J.J.J.",
"J.J.J.J.J.J.J.J.J.J.J.J.J.J.J.J.J.J.J.J.J.J.J.J.J.J.J.J.J.J.[ ] [ [ J.J.J.J.J.J.J.J.J.J.J.J.J.J.J.J.J.J.J.J.J.J.J.J.J.J.J.J.J.J.",
"J.J.J.J.J.J.J.J.J.J.J.J.J.J.J.J.J.J.J.J.J.J.J.J.J.J.J.J.J.[ ] } { ] [ J.J.J.J.J.J.J.J.J.J.J.J.J.J.J.J.J.J.J.J.J.J.J.J.J.J.J.J.J.",
"J.J.J.J.J.J.J.J.J.J.J.J.J.J.J.J.] [ J.J.J.J.J.J.J.J.J.J.J.[ [ #.+.[ [ J.J.J.J.J.J.J.J.J.J.J.[ ] J.J.J.J.J.J.J.J.J.J.J.J.J.J.J.J.",
"J.J.J.J.J.J.J.J.J.J.J.J.J.J.J.J.[ ] ] [ J.J.J.J.J.J.J.J.[ [  .#.$. .] [ J.J.J.J.J.J.J.J.[ [ ] [ J.J.J.J.J.J.J.J.J.J.J.J.J.J.J.J.",
"J.J.J.J.J.J.J.J.J.J.J.J.J.J.J.J.[ [ [ ] [ [ J.J.J.J.J.J.] [ #.#.#.#.[ [ J.J.J.J.J.J.[ ] ] [ [ ] J.J.J.J.J.J.J.J.J.J.J.J.J.J.J.J.",
"J.J.J.J.J.J.J.J.J.J.J.J.J.J.J.J.[ [ #.} [ ] [ J.J.J.J.[ ] +.#.#.#.#. .] [ J.J.J.J.[ ] [ } #.[ ] J.J.J.J.J.J.J.J.J.J.J.J.J.J.J.J.",
"J.J.J.J.J.J.J.J.J.J.J.J.J.J.J.J.[ { #.#.+.} ] [ [ [ [ ] { #.#.#.#.#.#.{ ] [ [ [ [ ] { +.$.#.[ [ J.J.J.J.J.J.J.J.J.J.J.J.J.J.J.J.",
"J.J.J.J.J.J.J.J.J.J.J.J.J.J.J.J.[ [ #.#.#.#.+.[ ] ] [ ] +.$.#.#.#.#.$.+.[ [ [ [ { +.$.#.#.+.[ [ J.J.J.J.J.J.J.J.J.J.J.J.J.J.J.J.",
"J.J.J.J.J.J.J.J.J.J.J.J.J.J.J.J.[ [ #.#.#.#.#.#. .[ ] } #.#.#.#.#.#.#.#.{ ] [ +.#.#.#.#.#.#.[ ] J.J.J.J.J.J.J.J.J.J.J.J.J.J.J.J.",
"J.J.J.J.J.J.J.J.J.J.J.J.J.J.J.J.] [ #.#.#.#.#.#.%.#. .#.#.#.+.#.#.#.#.#.+. .+.#.#.#.#.#.#.#.[ [ J.J.J.J.J.J.J.J.J.J.J.J.J.J.J.J.",
"J.J.J.J.J.J.J.J.J.J.J.J.J.J.J.J.[ { #.#.#.#.#.#.+.O.#.#.&.C.q.O.O.w.A.#.#.#.O.#.#.#.#.#.#.#.[ ] J.J.J.J.J.J.J.J.J.J.J.J.J.J.J.J.",
"J.J.J.J.J.J.J.J.J.J.J.J.J.J.J.J.[ [ #.#.#.#.#.O.a.s.#.G v.` h.e.w.g.' d.G #.d.y.@.#.#.#.#.#.[ ] J.J.J.J.J.J.J.J.J.J.J.J.J.J.J.J.",
"J.J.J.J.J.J.J.J.J.J.J.J.J.J.J.k { [ #.#.O.#.#.#.l.6.b.d.g.w I x.l.c t h.d.b.6.z.#.#.#.@.#.#.[ ] [ J.J.J.J.J.J.J.J.J.J.J.J.J.J.J.",
"J.J.J.J.J.u u u 7 7 7 u u u u 6 j { #.#.>.:.O.;.f.q U f.T y y I I y y W f.I w g.&.O.:.>.#.#.] ] [ [ [ ] [ [ ] [ [ [ [ J.J.J.J.J.",
"J.J.J.J.J.u u u i i i u i u i i u b *.@.n.h.k.V.` y c t c J c c y c I y t v y 1.V.p.j.n.O.#.{ [ [ [ [ [ [ [ [ [ [ ] [ J.J.J.J.J.",
"J.J.J.J.J.J.u u h g g h g g g g h f Z *.h.c I / I c c I c c c c P v y P P J y U / I J k.#.#.#.#.#.#.#.#.#.#.#.+.[ ] J.J.J.J.J.J.",
"J.J.J.J.J.J.u 7 a x h h h h h h h f z S n.I y t y c c c c v c c c c c c P y P y t y U b.#.$.#.#.#.#.#.#.#.#.$.} ] [ J.J.J.J.J.J.",
"J.J.J.J.J.J.J.u u f x g g g x f Z u.,.2.8.P c J c c c c v c v c v c v c c c c c c c I l.k.k.M.:.#.#.#.#.#.#.+.[ [ J.J.J.J.J.J.J.",
"J.J.J.J.J.J.J.u 7 p x h g h g f V ( % : % 5 P c c c c c c c c c c c c c c v c v c c c J I J j.;.@.$.#.#.#.$.{ ] [ J.J.J.J.J.J.J.",
"J.J.J.J.J.J.J.J.u 7 d x x h x x 4 o.: # % # 8 P c c c c c c c c c P P c c J c c c c c c y U p.O.#.#.#.#.#.+.] [ J.J.J.J.J.J.J.J.",
"J.J.J.J.J.J.J.J.J.7 i g g h 4 x B d.0 @ * % # 8 I c c c c v v c c c c c c v c c v c c v t ( m.;.#.@.#.#.#.[ ] J.J.J.J.J.J.J.J.J.",
"J.J.J.J.J.J.J.J.J.u 7 s n 4 | 3.^ r > # % % % # 8 I c c c c c c c v y P P v y P c c c J c U ` f.z.y.+.#.} ] [ J.J.J.J.J.J.J.J.J.",
"J.J.J.J.J.J.J.J.J.u u u f 4 %.R . @ % * * % % % # 8 I c c c v c y J J P y P y P c c c c c c y q r.s.O.#.[ ] [ J.J.J.J.J.J.J.J.J.",
"J.J.J.J.J.J.J.J.J.u u 7 s n f 3., $ # # # $ % % * @ < c c v c y y y y y y P y y c c c c t c c E b.+.$. .] [ [ J.J.J.J.J.J.J.J.J.",
"J.J.J.J.J.J.J.J.u u u a g z 3 *./ o 1.c.h.> # * @ I c.C.) w ^ S.Z.S.S.S.T I B.B.P c y ~ D.g.q j.a.G #.+.} ] ] [ J.J.J.J.J.J.J.J.",
"J.J.J.J.J.J.u u 7 p f x g n -.( 1 @ c.H.H.t @ * # c.H.H.~ w ` H.G.F.F.F.T I H.G.I c y ) H.B.t E h.d.$.$.#.+.{ ] ] [ J.J.J.J.J.J.",
"J.J.J.J.u u u u d h x g h l.c O $ # c.G.G.7.@ # 8 H.S.H.e > ` H.x.t J c y U G.G.c c e ^ H.N.t c t ' V.+.#.$.$. .[ ] [ [ J.J.J.J.",
"J.J.u u 7 u s g x g h h f S ` = $ # B.S.h.F.- O ~ G.<.H.y   I H.x.q t y y U G.G.E U I ` H.B.t c I l.q.+.#.#.#.$.#.} [ ] [ J.J.J.",
"J.u u u a g h g g g h h x 4 S 7.: @ B.D.U H.0 o S.g.W H.t . q H.F.M.B.l.v U G.H.H.H.H.H.H.C.t U c.>.O.$.#.#.#.#.#.$.+.} [ [ [ J.",
"J.u u u a f g h h h h h h 4 D 1.- @ M.F.5 H.) > H.c E H.e . t H.G.G.H.D.c Y G.H.x.l.l.B.H.C.e U x.w.O.#.#.#.#.#.#.$.+.} [ [ [ J.",
"J.J.J.u 7 u a h h h h h 4 D ` * # # M.H.* x.B.E H.- ~ H.t . e H.8.1 I P y I G.G.c e q ~ H.B.t c J h.w.@.#.#.#.$.#.} ] ] [ J.J.J.",
"J.J.J.J.u 7 7 i d h x h h k.J + # # c.H.$ T H.G.c.o ^ H.e . e H.7.o 8 I y I G.G.I I t ) H.B.y c y 4.V.+.#.#.#. .[ ] [ [ J.J.J.J.",
"J.J.J.J.J.J.u u 7 i f x g g =.` 8 @ M.H.* 5 H.H.T   ` H.t . e H.8.@ % 8 I I H.G.I c t ) H.B.t ! l.s.#.#.#.+.{ ] ] [ J.J.J.J.J.J.",
"J.J.J.J.J.J.J.J.7 7 u a f g 2 $./ o _ t.= $ 1.g.< O v c.9 O 8 x.E # * # 5 Y M.x.v c t W Z.t.w j.a.G #.#.{ [ [ [ J.J.J.J.J.J.J.J.",
"J.J.J.J.J.J.J.J.J.u 7 6 d g g 3.> % # + * $ @ @ # * # + # * % + # % % % $ 5 y t c c c c t y c Y b.O.$.} ] [ [ J.J.J.J.J.J.J.J.J.",
"J.J.J.J.J.J.J.J.J.u u i h 4 %.R o @ % * % % * * * $ * * % % % * % % % % % # 8 I c c c c v c t e r.s.O.#.[ [ [ J.J.J.J.J.J.J.J.J.",
"J.J.J.J.J.J.J.J.J.u 7 s n f | 9.( K > # * $ * % % % % % % % % % % % % % % % $ 8 I c c c c Y 4.g.k.y.#.$.} ] [ J.J.J.J.J.J.J.J.J.",
"J.J.J.J.J.J.J.J.J.u i h g h 4 z m s.0 + * % $ * % % % * % % * % % % % % % % % # 8 I c c t ( m.&.#.O.#.#.#.{ [ J.J.J.J.J.J.J.J.J.",
"J.J.J.J.J.J.J.J.u 7 d x g h g n 4 ..- # $ * * $ % % % % % % % % % % % % % % % % # 8 I c t U p.O.#.$.#.#.#. .] [ J.J.J.J.J.J.J.J.",
"J.J.J.J.J.J.J.u u p z g g h h f A ` & , - % * $ % % % % % % % % % % % % % % % * % # 8 I I K l.:.+.#.#.#.#.#.{ [ [ J.J.J.J.J.J.J.",
"J.J.J.J.J.J.J.u u f g g g h h f Z 0.,.3.1.* * * % % * % % * % % % % % % % % % * * $ * g.n.k.n.;.#.$.#.#.#.#.+.[ [ J.J.J.J.J.J.J.",
"J.J.J.J.J.J.u 7 a n h g h g z h z f f z 2.= # @ % * % % * $ $ * % % % % % % % # @ # > 2.A %.O.#.#.#.#.#.$.#.#.} ] [ J.J.J.J.J.J.",
"J.J.J.J.J.J.u u f h f h h h h g g h z z ,.& , w > $ * * * % % * % % % % * % # > w > ; ,.f S &.O.#.+.#.#.+.#.#.+.[ [ J.J.J.J.J.J.",
"J.J.J.J.J.u u u u i u u u u u u u p h h u.` X.s.c + $ + $ % * # $ % % % @ $ @ I s.X.1.0.z f l { [ [ [ [ [ [ [ [ [ ] [ J.J.J.J.J.",
"J.J.J.J.J.u u u u u u u u u u u 7 i h h N M 4 M ^ X 1 ` 1 # # > > # # 8 ` , o ` n 4 B N f h 6 j { ] [ [ ] [ ] ] ] [ [ J.J.J.J.J.",
"J.J.J.J.J.J.J.J.J.J.J.J.J.J.J.u u u x x f h h x 3.Q 9.@.` O : u.5.= @ 1.@.3.Q 2.g h f f h g u 6 j J.J.J.J.J.J.J.J.J.J.J.J.J.J.J.",
"J.J.J.J.J.J.J.J.J.J.J.J.J.J.J.J.u i h h h h x 4 | +.4 3 =.L 1.A S ` L +.2 f #.F 4 h x h h g i u J.J.J.J.J.J.J.J.J.J.J.J.J.J.J.J.",
"J.J.J.J.J.J.J.J.J.J.J.J.J.J.J.J.u u h h h z g h f 4 n z n p.Z 4 4 S p.h z x 4 f x g h h h g u u J.J.J.J.J.J.J.J.J.J.J.J.J.J.J.J.",
"J.J.J.J.J.J.J.J.J.J.J.J.J.J.J.J.u u g h h f g z h g s g z f f g x g h h f s g x g h g h h g u u J.J.J.J.J.J.J.J.J.J.J.J.J.J.J.J.",
"J.J.J.J.J.J.J.J.J.J.J.J.J.J.J.J.u i h h g g x g a u 7 p x h h h g x h x p 7 u s g n g g h g u u J.J.J.J.J.J.J.J.J.J.J.J.J.J.J.J.",
"J.J.J.J.J.J.J.J.J.J.J.J.J.J.J.J.u u g g x h d u 7 u u u d x h h g g n d 7 u u 7 i d n g g g u u J.J.J.J.J.J.J.J.J.J.J.J.J.J.J.J.",
"J.J.J.J.J.J.J.J.J.J.J.J.J.J.J.J.u u g x f i u u u u u u p g g h g g g i u u u u u 7 p f x g u u J.J.J.J.J.J.J.J.J.J.J.J.J.J.J.J.",
"J.J.J.J.J.J.J.J.J.J.J.J.J.J.J.J.u u g a u 7 u J.J.J.J.u u d x h g g d 7 u J.J.J.J.u 7 7 a g u 7 J.J.J.J.J.J.J.J.J.J.J.J.J.J.J.J.",
"J.J.J.J.J.J.J.J.J.J.J.J.J.J.J.J.u u u 7 u u J.J.J.J.J.J.u i g h x g u u J.J.J.J.J.J.u u 7 u u u J.J.J.J.J.J.J.J.J.J.J.J.J.J.J.J.",
"J.J.J.J.J.J.J.J.J.J.J.J.J.J.J.J.u u u u J.J.J.J.J.J.J.J.u 7 s h x a 7 u J.J.J.J.J.J.J.J.u u u u J.J.J.J.J.J.J.J.J.J.J.J.J.J.J.J.",
"J.J.J.J.J.J.J.J.J.J.J.J.J.J.J.J.u u J.J.J.J.J.J.J.J.J.J.J.u u h f u u J.J.J.J.J.J.J.J.J.J.J.u u J.J.J.J.J.J.J.J.J.J.J.J.J.J.J.J.",
"J.J.J.J.J.J.J.J.J.J.J.J.J.J.J.J.J.J.J.J.J.J.J.J.J.J.J.J.J.u 7 p p 7 u J.J.J.J.J.J.J.J.J.J.J.J.J.J.J.J.J.J.J.J.J.J.J.J.J.J.J.J.J.",
"J.J.J.J.J.J.J.J.J.J.J.J.J.J.J.J.J.J.J.J.J.J.J.J.J.J.J.J.J.J.u u u u J.J.J.J.J.J.J.J.J.J.J.J.J.J.J.J.J.J.J.J.J.J.J.J.J.J.J.J.J.J.",
"J.J.J.J.J.J.J.J.J.J.J.J.J.J.J.J.J.J.J.J.J.J.J.J.J.J.J.J.J.J.J.u u J.J.J.J.J.J.J.J.J.J.J.J.J.J.J.J.J.J.J.J.J.J.J.J.J.J.J.J.J.J.J.",
"J.J.J.J.J.J.J.J.J.J.J.J.J.J.J.J.J.J.J.J.J.J.J.J.J.J.J.J.J.J.J.u u J.J.J.J.J.J.J.J.J.J.J.J.J.J.J.J.J.J.J.J.J.J.J.J.J.J.J.J.J.J.J.",
"J.J.J.J.J.J.J.J.J.J.J.J.J.J.J.J.J.J.J.J.J.J.J.J.J.J.J.J.J.J.J.J.J.J.J.J.J.J.J.J.J.J.J.J.J.J.J.J.J.J.J.J.J.J.J.J.J.J.J.J.J.J.J.J."
};
